<svg xmlns="http://www.w3.org/2000/svg" height="16" width="16" style=""><rect id="backgroundrect" width="100%" height="100%" x="0" y="0" fill="none" stroke="none"/><g class="currentLayer" style=""><title>Layer 1</title><g id="svg_1" class="" fill-opacity="1" fill="#c93294"><path d="m3,1 a2,2 0 0 0 -1.4141,0.5859400000000002 a2,2 0 0 0 -0.5859400000000002,1.4141 v10 a2,2 0 0 0 0.5859400000000002,1.4141 a2,2 0 0 0 1.4141,0.5859400000000002 h10 a2,2 0 0 0 2,-2 v-10 a2,2 0 0 0 -2,-2 h-10 zm0,1 h10 a1,1 0 0 1 1,1 v10 a1,1 0 0 1 -1,1 h-10 a1,1 0 0 1 -1,-1 v-10 a1,1 0 0 1 1,-1 zm0,1 v2 h2 v-2 zm8,0 v2 h2 v-2 zm-8,8 v2 h2 v-2 zm8,0 v2 h2 v-2 z" fill="#c93294" fill-opacity=".98824" id="svg_2"/></g></g></svg>