<svg xmlns="http://www.w3.org/2000/svg" height="16" width="16" style=""><rect id="backgroundrect" width="100%" height="100%" x="0" y="0" fill="none" stroke="none"/><g class="currentLayer" style=""><title>Layer 1</title><path d="m8 3.002a1 1 0 0 0 -.69336.29102 1 1 0 0 0 0 1.4141l2.293 2.293h-4.5859c-.55228 0-1 .4477-1 1s.44772 1 1 1h4.5859l-2.293 2.293a1 1 0 0 0 0 1.4141 1 1 0 0 0 1.4141 0l4-4a1.0001 1.0001 0 0 0 0-1.4141l-4-4a1 1 0 0 0 -.7207-.29102z" fill="#c93294" fill-opacity="1" id="svg_1" class=""/></g></svg>